<svg width="70" height="70" viewBox="0 0 70 70" fill="none" xmlns="http://www.w3.org/2000/svg">
<path d="M47.475 10.2383L43.6654 15.4764L37.4749 24.5241H36.0464L33.6654 25.4764L31.2844 26.4288L30.8082 28.8098L30.332 32.1431L30.8082 35.9527L31.7606 36.9051L33.6654 35.4765L36.0464 35.0003L38.9035 34.5241L41.2845 34.0479L42.7131 32.1431V28.3336C46.3639 23.8891 53.7607 14.905 54.1417 14.524C54.6179 14.0478 55.0941 13.0954 55.5703 12.1431L55.5703 12.143C56.0465 11.1906 56.0465 11.6668 56.0465 11.1906C56.0465 10.8097 56.3639 10.7145 56.5227 10.7145L55.5703 8.33348L55.0941 7.3811L52.2369 6.42871H51.2845L49.3798 7.85729L47.475 10.2383Z" fill="url(#paint0_linear_7846_16126)"/>
<path d="M62.2299 17.6981C62.2116 15.315 60.7294 13.4379 58.4528 12.9253C57.9191 12.8047 57.359 12.7997 56.7695 12.7376C56.8407 12.5722 56.8987 12.4329 56.9611 12.295C57.4427 11.228 57.602 10.119 57.3017 8.98412C56.7269 6.80743 55.2924 5.45087 53.0481 5.08267C50.9537 4.73902 49.202 5.47181 47.9657 7.18645C46.7963 8.80869 45.684 10.4728 44.5858 12.1427C44.2723 12.6199 43.9449 12.809 43.348 12.8083C32.9843 12.7867 22.6205 12.7917 12.2567 12.7939C9.02875 12.7946 7.00181 14.7785 7.00107 17.9342C6.9996 27.755 6.99814 37.5765 7.00768 47.3973C7.00841 47.9192 7.05026 48.4564 7.17947 48.961C7.74108 51.1601 9.64102 52.5571 12.0615 52.5607C17.958 52.5686 23.8553 52.5629 29.7519 52.5629H30.5154C30.0367 54.5417 29.5801 56.4282 29.1146 58.3508C28.1037 58.3508 27.134 58.34 26.1642 58.3529C24.3163 58.3782 22.8598 59.5413 22.5214 61.2841C22.4377 61.7151 22.4619 62.167 22.434 62.6594C21.1772 62.6594 19.9505 62.645 18.7245 62.6645C17.773 62.6789 17.2033 63.6211 17.6798 64.3936C17.8259 64.6311 18.0858 64.8 18.2935 65H50.9404C50.9977 64.9524 51.0513 64.8996 51.1122 64.8578C51.5975 64.5213 51.8324 64.086 51.6606 63.4976C51.5006 62.9489 51.0682 62.6659 50.3898 62.6594C49.9134 62.6551 49.4369 62.6587 48.9605 62.6587H46.786C46.7772 62.4688 46.7691 62.3721 46.7676 62.2746C46.7339 59.747 45.292 58.3515 42.7123 58.3501H40.1178C39.6524 56.4181 39.195 54.523 38.723 52.5629H39.5437C45.3412 52.5629 51.1387 52.5679 56.9361 52.5556C57.4867 52.5549 58.0535 52.5152 58.585 52.3838C60.8366 51.825 62.2307 49.9479 62.2322 47.5128C62.2358 39.8196 62.2336 32.1272 62.2336 24.434C62.2336 22.1887 62.2468 19.9434 62.2299 17.6981ZM43.0948 18.5558C45.3324 15.2659 47.5664 11.9745 49.8143 8.69173C50.7114 7.38138 52.2281 6.99369 53.5584 7.70048C55.1 8.51991 55.5302 10.4815 54.4085 11.864C52.6774 13.9988 50.8986 16.0968 49.1389 18.2093C48.2476 19.2792 47.3535 20.3477 46.4101 21.4783C45.2157 20.6069 44.0719 19.7738 42.9009 18.9197C42.9722 18.784 43.0221 18.6627 43.0948 18.5558ZM39.2648 24.1871C40.0305 23.0637 40.7565 21.9981 41.5274 20.8668C42.6499 21.6841 43.7401 22.4775 44.8824 23.3092C44.0124 24.3517 43.1674 25.3639 42.3012 26.402C41.269 25.649 40.2852 24.9314 39.2648 24.1871ZM38.7083 33.8728C38.2135 33.8837 37.7172 33.9046 37.2239 33.8793C35.3306 33.7848 33.4526 33.7768 31.6577 34.6677C31.2943 32.7914 31.1218 30.9576 31.6856 29.1397C32.3052 27.1377 33.7786 26.1205 35.8136 25.727C36.7203 25.5516 37.4383 25.7025 38.1562 26.3031C39.0901 27.0843 40.123 27.7521 41.1053 28.4784C41.2734 28.6026 41.4745 28.752 41.5391 28.9325C42.4803 31.5445 40.9819 33.8245 38.7083 33.8728ZM42.7013 60.7433C44.0748 60.7433 44.4815 61.1996 44.3428 62.6305H24.9139C24.701 61.2653 25.1459 60.7441 26.5019 60.7433C31.9014 60.7426 37.301 60.7426 42.7013 60.7433ZM31.6048 58.2988C32.0644 56.3928 32.5188 54.5085 32.9835 52.5816H36.2468C36.7041 54.4703 37.1615 56.3546 37.6328 58.2988H31.6048ZM59.7978 47.7185C59.7728 49.1718 58.8794 50.08 57.406 50.1768C57.2283 50.1883 57.0492 50.1869 56.87 50.1869C42.0391 50.1876 27.2074 50.1883 12.3764 50.1818C11.944 50.1818 11.4918 50.166 11.0843 50.0432C10.1997 49.7768 9.5375 49.1559 9.49713 48.2564C9.40976 46.3136 9.46996 44.3636 9.46996 42.3349C10.359 42.3349 11.2245 42.3371 12.0908 42.3335C12.3881 42.332 12.6891 42.34 12.9813 42.2966C13.5921 42.2057 13.9842 41.7588 14.0003 41.1834C14.0172 40.5863 13.6318 40.0766 12.9997 39.9922C12.4726 39.9221 11.9308 39.9553 11.3956 39.9481C10.8002 39.9402 10.2048 39.9387 9.60945 39.9315C9.57421 39.9315 9.53971 39.9026 9.43179 39.855V39.2623C9.43179 32.1163 9.43032 24.9704 9.43252 17.8238C9.43326 16.4686 10.0235 15.5951 11.1629 15.2702C11.4059 15.2009 11.6709 15.1843 11.9256 15.1843C21.9517 15.18 31.9785 15.18 42.0053 15.1814C42.1228 15.1814 42.2402 15.1922 42.4384 15.2023C42.3313 15.3886 42.2578 15.5359 42.1653 15.6709C40.5348 18.0714 38.897 20.4668 37.2753 22.8731C37.08 23.1626 36.8766 23.2875 36.5147 23.2984C32.3859 23.4218 29.4399 26.1645 29.0045 30.1938C28.7542 32.5076 29.1235 34.7414 29.7306 36.9542C29.9765 37.8487 30.9705 38.1815 31.6533 37.5592C33.029 36.3058 34.6691 36.1499 36.4207 36.2091C37.5638 36.2474 38.7413 36.2979 39.8528 36.0849C42.4862 35.5817 44.3934 33.1184 44.2209 30.0653C44.2055 29.7931 44.2283 29.4891 44.1145 29.2567C43.7085 28.4322 44.1446 27.8965 44.6467 27.3002C47.8857 23.45 51.1041 19.5832 54.3145 15.7106C54.6287 15.3316 54.9393 15.128 55.4598 15.1677C56.1308 15.2197 56.8091 15.1691 57.4838 15.1857C58.7281 15.2153 59.6979 16.1358 59.786 17.3538C59.7992 17.5292 59.8022 17.7054 59.8022 17.8808C59.8029 25.0267 59.8022 32.1734 59.8022 39.3193V39.9474H58.9719C46.9401 39.9474 34.9084 39.9467 22.8767 39.951C22.5823 39.951 22.2762 39.9626 21.9958 40.0391C21.4349 40.1907 21.1214 40.6708 21.1588 41.2346C21.1926 41.7588 21.5611 42.1826 22.111 42.2815C22.3812 42.3306 22.6631 42.3327 22.9398 42.3327C34.9319 42.3349 46.924 42.3349 58.9161 42.3349H59.8029C59.8029 43.142 59.8029 43.8777 59.8022 44.6141C59.8022 45.6487 59.8154 46.684 59.7978 47.7185Z" fill="#F1F1F1"/>
<path d="M18.7656 41.1204C18.778 41.7838 18.2605 42.3116 17.5895 42.3188C16.9265 42.3253 16.3892 41.7968 16.3906 41.1384C16.3921 40.519 16.9111 39.9847 17.5395 39.9573C18.1768 39.9299 18.7538 40.4778 18.7656 41.1204Z" fill="#F1F1F1"/>
<defs>
<linearGradient id="paint0_linear_7846_16126" x1="43.4273" y1="6.42871" x2="43.4273" y2="36.9051" gradientUnits="userSpaceOnUse">
<stop stop-color="#F57F3D"/>
<stop offset="1" stop-color="#D7392F"/>
</linearGradient>
</defs>
</svg>
