<svg width="70" height="70" viewBox="0 0 70 70" fill="none" xmlns="http://www.w3.org/2000/svg">
<path d="M48.4218 29.4997L57.8956 9.76253L57.1061 7.78882L55.1324 8.18356L53.9482 10.1573L45.6586 28.3155L43.2901 28.7102L41.7111 30.2892L41.3164 31.0787V35.0261V36.6051V40.9472L42.8954 40.1577L43.6849 39.763C44.0796 39.6314 44.8691 39.2893 44.8691 38.9735C44.8691 38.6577 46.4481 37.7893 47.2376 37.3945L48.027 35.0261L48.8165 32.6576L48.4218 29.4997Z" fill="url(#paint0_linear_7846_16137)"/>
<path d="M64.2108 53.5791H42.8947H41.3157V56.737H28.2892V53.5791H6.57834L6.18359 53.9738L6.57834 55.5528L7.76257 58.316L10.9205 60.6845H15.2627H46.8421H59.4739L63.0266 57.5265L64.2108 53.5791Z" fill="url(#paint1_linear_7846_16137)"/>
<path d="M9.79629 52.55C8.87738 51.2518 8.89999 49.8721 8.9016 48.4842C8.91129 38.7593 8.90483 29.0343 8.90806 19.3094C8.90968 16.8761 10.326 15.0104 12.566 14.5113C13.0133 14.4119 13.4865 14.4102 13.9468 14.4086C15.8007 14.3972 17.6531 14.4037 19.5071 14.4037C24.4166 14.4037 29.3261 14.4037 34.2372 14.4037C39.5747 14.4037 44.9122 14.3972 50.2496 14.4151C50.7374 14.4168 50.999 14.2781 51.2138 13.8231C52.06 12.0259 52.9612 10.2564 53.8252 8.4673C54.2871 7.50997 55.0412 7.02723 56.0764 7.00114C57.1439 6.97504 58.0031 7.39744 58.5425 8.35151C58.9963 9.1539 58.9462 9.99054 58.5538 10.8044C57.9853 11.9884 57.3991 13.1642 56.8355 14.3156C57.4427 14.5244 58.0402 14.65 58.5603 14.924C60.1978 15.7916 61.078 17.2104 61.0812 19.0664C61.1055 29.3197 61.1087 39.5731 61.0651 49.8264C61.0619 50.7202 60.6694 51.6122 60.4465 52.55C61.4446 52.55 62.5622 52.5484 63.6797 52.55C64.7666 52.5516 65.0379 52.8403 64.9959 53.933C64.8183 58.5158 61.1684 62.0988 56.5173 62.2554C56.196 62.2668 55.873 62.2619 55.55 62.2619C41.6903 62.2619 27.829 62.2635 13.9694 62.2603C10.0805 62.2586 6.88935 60.1809 5.60222 56.712C5.25662 55.7791 5.13388 54.7468 5.01599 53.7487C4.91586 52.8957 5.28569 52.5598 6.13677 52.5516C7.3044 52.5435 8.47202 52.55 9.79629 52.55ZM40.6906 55.7743C40.6906 55.0632 40.6939 54.4141 40.689 53.765C40.6826 52.8664 41.0266 52.5402 41.9326 52.5402C46.7468 52.5435 51.561 52.5484 56.3752 52.5321C58.0984 52.5255 59.1804 51.3921 59.1804 49.6487C59.182 39.4981 59.1836 29.3458 59.1804 19.1952C59.1804 17.5073 58.079 16.3836 56.4011 16.302C56.0054 16.2825 55.7954 16.4064 55.613 16.7799C53.5571 21.0071 51.4738 25.2213 49.4228 29.4518C49.3049 29.6948 49.3017 30.0911 49.4147 30.3374C50.0994 31.8476 50.1689 33.3578 49.5132 34.881C47.9047 38.6125 44.8056 40.5369 41.1638 41.7063C40.3709 41.9607 39.6732 41.4274 39.888 40.3559C39.9429 40.0787 40.0333 39.8063 40.0802 39.5274C40.4339 37.4513 40.1367 35.385 39.8912 33.3333C39.5812 30.7386 41.4351 27.9824 43.9706 27.5388C44.3857 27.4654 44.6021 27.3056 44.7765 26.9468C46.4076 23.5953 48.0517 20.2488 49.6892 16.899C49.7732 16.7277 49.8362 16.5467 49.9202 16.3461C46.9906 16.3461 44.1434 16.3461 41.2963 16.3461C41.532 16.6608 41.8098 16.8761 42.1134 17.0441C42.8337 17.442 43.063 17.809 42.7853 18.5771C42.3654 19.7351 41.8776 20.8701 41.3512 21.9824C41.0185 22.6837 40.5937 22.806 39.8509 22.5924C38.1035 22.0884 37.2201 22.9495 37.6513 24.7386C37.6755 24.8364 37.7143 24.931 37.7401 25.0289C37.8661 25.497 37.7336 25.8965 37.3396 26.1509C36.0541 26.9778 34.662 27.5421 33.1471 27.7671C32.7175 27.8307 32.4059 27.6562 32.2104 27.2632C32.1119 27.0642 32.0183 26.8587 31.8988 26.6728C31.1898 25.5671 30.1643 25.4937 29.3116 26.4885C29.1678 26.6565 29.0499 26.849 28.9224 27.0316C28.4637 27.6921 27.9502 27.9465 27.204 27.666C26.0235 27.2224 24.872 26.6924 23.727 26.1591C23.1666 25.8982 23.06 25.3861 23.2054 24.812C23.2506 24.6358 23.3168 24.4646 23.3556 24.2868C23.6091 23.0898 22.905 22.276 21.697 22.3771C21.458 22.3966 21.2109 22.4358 20.9896 22.5206C20.3404 22.7718 19.9108 22.5141 19.5669 21.9694C18.8127 20.7739 18.3088 19.4774 18.0165 18.096C17.9131 17.6084 18.0795 17.2186 18.5042 16.9495C18.7674 16.7832 19.0258 16.6119 19.2875 16.4423C19.2762 16.3966 19.2632 16.351 19.2519 16.3053C19.1001 16.3053 18.9483 16.3053 18.7965 16.3053C17.1444 16.3053 15.4923 16.2988 13.8418 16.3069C11.8941 16.3167 10.817 17.4127 10.817 19.3746C10.817 28.6706 10.817 37.9683 10.817 47.2643C10.817 48.1385 10.8024 49.0143 10.8218 49.8884C10.8525 51.3578 11.9991 52.5272 13.4397 52.5304C18.3153 52.5418 23.1892 52.5419 28.0648 52.5386C28.9902 52.5386 29.3213 52.8648 29.3116 53.8221C29.3051 54.4647 29.31 55.1056 29.31 55.7726C33.1294 55.7743 36.868 55.7743 40.6906 55.7743ZM27.393 54.5022C20.5488 54.5022 13.7869 54.5022 6.98786 54.5022C7.03954 54.768 7.07184 55.0077 7.13321 55.2393C7.96007 58.325 10.5892 60.3391 13.8337 60.3407C27.9534 60.3456 42.0731 60.3423 56.1927 60.3423C56.3736 60.3423 56.5561 60.3391 56.737 60.3277C60.0089 60.1303 62.6268 57.7052 62.9917 54.512C56.2137 54.512 49.4373 54.512 42.6108 54.512C42.6108 55.2328 42.6173 55.921 42.6092 56.6076C42.5995 57.3415 42.304 57.6807 41.5983 57.6824C37.2072 57.6922 32.8161 57.6922 28.425 57.684C27.7079 57.6824 27.4075 57.3513 27.3962 56.6272C27.3849 55.9373 27.393 55.2491 27.393 54.5022ZM40.7762 18.5282C40.7149 18.5412 40.6535 18.5559 40.5921 18.569C40.1012 17.8938 39.6167 17.2153 39.1144 16.5499C39.0321 16.4407 38.877 16.3216 38.7527 16.3184C37.9694 16.2972 37.1862 16.3069 36.3884 16.3069C36.3238 16.5059 36.2592 16.6739 36.2123 16.8468C35.5244 19.3877 33.3054 21.3072 30.8248 21.5029C28.3087 21.7019 25.6795 20.3189 24.8446 17.8546C24.3149 16.2923 23.4799 16.1602 22.2251 16.3037C22.125 16.3151 22.0184 16.2857 21.9247 16.3135C21.8181 16.3445 21.6954 16.3966 21.6308 16.4782C21.1253 17.1191 20.6327 17.7682 20.0675 18.5054C20.2048 18.8495 20.4196 19.329 20.5891 19.8248C20.7635 20.3336 21.0575 20.4526 21.5904 20.3874C23.6753 20.1297 25.3953 21.5959 25.3 23.7014C25.2515 24.7663 25.6472 25.2083 26.5322 25.4578C26.6663 25.4953 26.7971 25.554 26.9247 25.6144C27.2444 25.7677 27.4479 25.6845 27.6869 25.3958C29.3035 23.4372 31.6064 23.4877 33.1633 25.5133C33.3813 25.7954 33.5702 25.8541 33.8722 25.7318C34.0951 25.6421 34.3325 25.585 34.5554 25.497C35.484 25.1251 35.4824 25.1235 35.4646 24.1205C35.4275 22.0623 36.7533 20.5978 38.6913 20.5489C39.1128 20.5374 39.6425 20.6516 39.9268 20.4396C40.2368 20.208 40.324 19.6682 40.4985 19.2588C40.6018 19.0207 40.6858 18.7728 40.7762 18.5282ZM42.3088 39.1523C42.8951 38.8278 43.5766 38.4885 44.221 38.0873C45.8311 37.0844 47.1214 35.7878 47.8417 33.9775C48.5846 32.1069 47.5688 29.9476 45.8198 29.429C43.5927 28.7685 41.7145 30.9066 41.8615 32.6386C42.0424 34.7913 42.1603 36.9506 42.3088 39.1523ZM47.8159 28.3836C47.9112 28.2107 48.0032 28.0591 48.0807 27.8992C50.9699 21.9857 53.8559 16.0721 56.7434 10.1569C56.8048 10.0297 56.8726 9.90084 56.9065 9.76548C57.0083 9.34145 56.8242 8.98918 56.4447 8.90111C56.1943 8.84403 55.8665 9.00549 55.613 9.14411C55.4805 9.21587 55.4272 9.44746 55.3465 9.61055C53.5716 13.2278 51.7984 16.8435 50.0252 20.4624C48.8495 22.8631 47.6754 25.2637 46.5013 27.6644C46.947 27.909 47.3653 28.1373 47.8159 28.3836ZM26.3077 16.3298C26.5419 18.114 28.4621 19.6127 30.3984 19.5883C32.2589 19.5638 34.1419 18.0063 34.3099 16.3298C31.6549 16.3298 29.0015 16.3298 26.3077 16.3298Z" fill="#F1F1F1"/>
<path d="M40.6406 46.3103C40.8554 46.3103 41.0718 46.3103 41.2866 46.3103C45.4161 46.3103 49.5455 46.307 53.675 46.3119C54.5697 46.3135 55.0897 46.9904 54.6779 47.6802C54.5148 47.9526 54.0949 48.1695 53.7654 48.2152C53.1518 48.3 52.5203 48.2412 51.8953 48.2412C47.4832 48.2412 43.0727 48.2412 38.6606 48.2412C38.4798 48.2412 38.2682 48.3 38.1229 48.2249C37.8063 48.0635 37.3767 47.8906 37.2685 47.6134C37.1603 47.3328 37.2718 46.8159 37.4833 46.5859C38.2908 45.7085 39.1694 44.8963 40.0366 44.076C40.4936 43.6438 40.9813 43.6487 41.377 44.0434C41.7533 44.4201 41.7598 44.9681 41.356 45.4051C41.1105 45.671 40.8182 45.8928 40.5469 46.1358C40.5792 46.1961 40.6099 46.2532 40.6406 46.3103Z" fill="#F1F1F1"/>
<path d="M22.7316 45.6773C22.1196 45.6675 21.7239 45.0412 21.9161 44.3514C22.4991 42.2443 23.0918 40.1404 23.6828 38.0366C24.2739 35.9327 24.8682 33.8289 25.4642 31.7267C25.6127 31.2032 25.9406 30.8542 26.4961 30.8787C26.9838 30.8999 27.239 31.2603 27.3149 31.7186C27.3456 31.9077 27.2955 32.1214 27.2422 32.3122C26.1166 36.4318 24.9845 40.5498 23.8524 44.6677C23.6732 45.3185 23.2549 45.6854 22.7316 45.6773Z" fill="#F1F1F1"/>
<path d="M32.0665 38.2472C30.7794 36.9523 29.5843 35.7503 28.3908 34.5467C28.2487 34.4032 28.0969 34.2662 27.9774 34.1048C27.6593 33.6742 27.7012 33.1947 28.0921 32.849C28.478 32.5081 28.8931 32.5147 29.3065 32.805C29.4034 32.8735 29.4826 32.9713 29.5681 33.0561C30.978 34.4782 32.3895 35.8987 33.7945 37.3258C34.4308 37.9716 34.4308 38.3793 33.7977 39.0333C32.3637 40.5174 30.9312 42.0031 29.4858 43.4742C28.8689 44.1037 27.9984 43.9504 27.8401 43.1578C27.7788 42.8512 27.9564 42.3929 28.1793 42.1483C29.2694 40.9528 30.4095 39.8031 31.5384 38.6451C31.6805 38.5033 31.863 38.4005 32.0665 38.2472Z" fill="#F1F1F1"/>
<path d="M17.202 38.1769C18.473 39.493 19.7327 40.7732 20.9552 42.0877C21.1813 42.3307 21.388 42.7238 21.3654 43.0288C21.3444 43.3027 21.0441 43.6778 20.7808 43.7773C20.524 43.8752 20.0525 43.7887 19.8571 43.5963C18.2663 42.016 16.7095 40.3998 15.164 38.7738C14.7877 38.3775 14.8393 37.9029 15.2156 37.518C16.745 35.9605 18.2792 34.4079 19.828 32.87C20.2172 32.4818 20.7695 32.5128 21.1248 32.8716C21.4898 33.2418 21.5237 33.7637 21.1426 34.1829C20.6274 34.752 20.0718 35.2837 19.5324 35.83C18.7637 36.6063 17.995 37.3778 17.202 38.1769Z" fill="#F1F1F1"/>
<path d="M53.8912 56.4446C54.4338 56.4446 54.9765 56.4299 55.5175 56.4479C56.115 56.4691 56.4816 56.836 56.4929 57.3856C56.5042 57.9271 56.1376 58.3495 55.553 58.3625C54.4096 58.3886 53.2646 58.3903 52.1212 58.3593C51.5398 58.343 51.1894 57.914 51.212 57.3628C51.2346 56.8328 51.5802 56.474 52.1454 56.4511C52.7252 56.4283 53.3082 56.4462 53.8912 56.4446Z" fill="#F1F1F1"/>
<path d="M47.3902 56.4444C47.9345 56.4444 48.4771 56.4313 49.0213 56.4477C49.6415 56.4656 49.9806 56.8016 49.9935 57.3724C50.0081 57.9774 49.6689 58.3542 49.0262 58.3672C47.9393 58.3884 46.8524 58.3868 45.7656 58.3688C45.1163 58.359 44.7594 57.997 44.7578 57.4082C44.7562 56.813 45.1099 56.464 45.7607 56.4477C46.3033 56.433 46.8476 56.4428 47.3902 56.4444Z" fill="#F1F1F1"/>
<defs>
<linearGradient id="paint0_linear_7846_16137" x1="49.606" y1="7.78882" x2="49.606" y2="40.9472" gradientUnits="userSpaceOnUse">
<stop stop-color="#F57F3D"/>
<stop offset="1" stop-color="#D7392F"/>
</linearGradient>
<linearGradient id="paint1_linear_7846_16137" x1="35.1972" y1="53.5791" x2="35.1972" y2="60.6845" gradientUnits="userSpaceOnUse">
<stop stop-color="#F57F3D"/>
<stop offset="1" stop-color="#D7392F"/>
</linearGradient>
</defs>
</svg>
