<svg width="70" height="70" viewBox="0 0 70 70" fill="none" xmlns="http://www.w3.org/2000/svg">
<path d="M46.5365 22.4245L45.6768 19.4157L41.3785 18.9858L41.3785 19.8455V21.5648L40.5188 22.4245L39.6592 23.714L36.6503 24.1439L34.0713 22.4245L31.0624 25.4334L32.7818 28.0124L31.0624 31.8809L29.3432 32.3107L27.8828 33.6002V37.4687H31.4923L32.7818 41.7671L31.0624 44.3461L33.6414 47.3549L34.9309 46.4952L35.7906 45.6356L37.5099 46.0654C38.3696 46.2087 40.1749 46.6672 40.5188 47.3549C40.8627 48.0426 40.6621 47.928 40.5188 47.7847C40.5188 47.928 40.6048 48.3006 40.9486 48.6444C41.2925 48.9883 41.0919 49.3608 40.9486 49.5041L41.3785 49.9339H42.2381L43.0978 50.7936L45.247 50.3638L45.6768 49.9339L46.1066 47.7847L47.3961 46.0654H50.405L52.5542 47.7847C53.1273 47.3549 54.2735 46.4093 54.2735 46.0654C54.2735 45.7215 55.1332 45.0625 55.563 44.7759V43.9162L54.2735 42.1969L54.7033 41.3372L55.1332 39.1881L55.9928 37.8986H57.2823L59.0017 37.0389L59.4315 36.1792V33.1704H57.2823L55.563 32.3107L55.1332 31.0212L54.2735 28.0124L55.9928 25.8632L52.984 22.4245L50.8348 24.1439L49.5453 23.714L46.5365 22.4245Z" fill="url(#paint0_linear_7846_16169)"/>
<path d="M38.9187 5C39.2505 5.09704 39.5839 5.18781 39.9126 5.29424C42.5654 6.14721 44.24 8.52614 44.262 11.5061C44.2776 13.6346 44.2651 15.7631 44.2651 17.8916C44.2651 18.0998 44.2651 18.3095 44.2651 18.5803C44.7644 18.5803 45.1885 18.5865 45.6142 18.5787C46.1745 18.5677 46.5 18.8166 46.5548 19.3894C46.6252 20.1266 46.7145 20.8637 46.7645 21.6025C46.788 21.9593 46.907 22.1299 47.2716 22.2614C48.1309 22.5697 48.9713 22.939 49.793 23.3366C50.0935 23.4821 50.2656 23.4633 50.5035 23.2536C51.0607 22.7637 51.6351 22.2942 52.2157 21.831C52.7353 21.4162 53.0703 21.4334 53.5445 21.9076C54.5399 22.8999 55.5306 23.8984 56.5119 24.9064C56.9705 25.3774 56.983 25.7296 56.5698 26.2476C56.1065 26.8267 55.6057 27.3776 55.1644 27.9724C55.0501 28.1273 55.0204 28.4341 55.0908 28.6187C55.4273 29.5093 55.7967 30.3889 56.1895 31.2559C56.2646 31.4218 56.4869 31.6018 56.6621 31.6284C57.3555 31.7333 58.0566 31.788 58.7562 31.846C59.5701 31.9148 59.8502 32.1824 59.8549 32.9744C59.8628 34.3219 59.8628 35.6695 59.8549 37.017C59.8502 37.8105 59.5716 38.0813 58.7594 38.1501C58.0786 38.208 57.3962 38.255 56.7232 38.3645C56.5338 38.3958 56.3069 38.5993 56.2224 38.7824C55.8295 39.6276 55.4633 40.4868 55.1268 41.357C55.0548 41.5432 55.0751 41.8516 55.1863 42.0049C55.5995 42.5715 56.0705 43.0974 56.5182 43.6389C57.0252 44.2524 57.019 44.6077 56.4759 45.1555C55.5118 46.1258 54.5461 47.093 53.5758 48.0556C53.0515 48.5752 52.7322 48.5877 52.1563 48.1197C51.5944 47.6659 51.0341 47.2089 50.4894 46.7346C50.2719 46.5453 50.1107 46.5124 49.8274 46.6454C48.965 47.0492 48.0855 47.4186 47.1949 47.7535C46.8757 47.874 46.788 48.0509 46.7645 48.3529C46.7035 49.1104 46.6221 49.8679 46.547 50.6239C46.4938 51.1638 46.187 51.4189 45.6502 51.4142C45.2229 51.4111 44.7957 51.4142 44.2995 51.4142C44.2854 51.6741 44.2635 51.8979 44.262 52.1217C44.2369 54.5616 44.3058 57.0063 44.1712 59.44C44.0037 62.4466 41.246 64.9742 38.2254 64.9836C30.8429 65.0055 23.4604 65.0055 16.0779 64.9836C12.7067 64.9742 10.0757 62.1758 10.0053 58.6011C9.99436 58.0549 10.0037 57.5071 10.0037 56.9609C10.0037 41.8657 10.0037 26.7719 10.0037 11.6767C10.0037 8.88455 11.1572 6.78577 13.7161 5.55717C14.2342 5.30832 14.8101 5.18312 15.3595 5C23.2131 5 31.0667 5 38.9187 5ZM42.5889 13.1244C42.5889 12.4592 42.5983 11.8942 42.5873 11.3308C42.5372 8.56997 40.5777 6.64021 37.8216 6.63865C30.6926 6.63552 23.5621 6.63708 16.4331 6.64021C16.1796 6.64021 15.9229 6.63865 15.6756 6.68403C12.4124 7.2819 11.2511 9.90812 11.7833 13.1244C12.0258 13.1244 12.2763 13.1244 12.5267 13.1244C19.4412 13.1244 26.3558 13.1244 33.2703 13.1275C33.5223 13.1275 33.8369 13.079 34.0091 13.2073C34.2579 13.3904 34.5537 13.716 34.549 13.9758C34.5443 14.2356 34.2329 14.547 33.9778 14.7208C33.7978 14.8444 33.4863 14.7896 33.2343 14.7896C26.3198 14.7928 19.4052 14.7912 12.4907 14.7912C12.2434 14.7912 11.9961 14.7912 11.7144 14.7912C11.7144 27.7454 11.7144 40.6245 11.7144 53.5381C22.0048 53.5381 32.2671 53.5381 42.5498 53.5381C42.5498 52.8244 42.5498 52.1498 42.5498 51.4127C42.11 51.4127 41.703 51.4189 41.2992 51.4111C40.6466 51.3986 40.3868 51.1513 40.3258 50.5065C40.2506 49.7302 40.1833 48.9524 40.0847 48.1792C40.0675 48.0431 39.9392 47.8568 39.8155 47.8067C38.7795 47.3779 37.7324 46.9741 36.6447 46.5468C36.0468 47.0414 35.4036 47.5798 34.754 48.1104C34.1765 48.5814 33.8432 48.5767 33.3298 48.0697C32.3297 47.0805 31.3343 46.0883 30.3468 45.0866C29.8866 44.6218 29.8741 44.2665 30.2889 43.7484C30.7521 43.1694 31.2529 42.6185 31.6927 42.0237C31.807 41.8688 31.832 41.5605 31.7616 41.3742C31.4251 40.4837 31.0557 39.6041 30.6629 38.737C30.5878 38.5711 30.364 38.3943 30.1871 38.3677C29.4938 38.2628 28.7926 38.208 28.0915 38.1501C27.2854 38.0828 27.0006 37.8074 26.9959 37.017C26.9896 35.6695 26.9881 34.3219 26.9959 32.9744C27.0006 32.2028 27.2745 31.9195 28.0367 31.8506C28.7363 31.788 29.4343 31.7051 30.1355 31.6597C30.4516 31.6394 30.5925 31.5126 30.7067 31.2105C31.0291 30.356 31.3813 29.5108 31.7694 28.6845C31.9181 28.3683 31.9056 28.1711 31.6724 27.9129C31.2029 27.3917 30.7662 26.8392 30.3248 26.293C29.86 25.7171 29.8725 25.3853 30.3859 24.8672C31.3484 23.8953 32.3156 22.9296 33.286 21.9671C33.851 21.4068 34.1671 21.4006 34.7979 21.9217C35.4443 22.4539 36.0891 22.9891 36.6431 23.4477C37.7215 23.0189 38.72 22.637 39.7029 22.2175C39.8703 22.1471 40.0566 21.928 40.0816 21.7543C40.1943 20.9827 40.2491 20.2033 40.3289 19.427C40.3868 18.8573 40.6638 18.5991 41.2413 18.585C41.6655 18.574 42.0912 18.5834 42.5544 18.5834C42.567 18.3314 42.5842 18.1405 42.5858 17.9511C42.5889 16.9213 42.5873 15.893 42.5873 14.7943C41.9973 14.7943 41.4745 14.8021 40.9534 14.7928C40.2835 14.7802 39.8828 14.4672 39.8781 13.9664C39.8735 13.464 40.2788 13.1385 40.9408 13.1291C41.4667 13.1181 41.9894 13.1244 42.5889 13.1244ZM11.6972 55.28C11.6972 56.5368 11.658 57.7622 11.705 58.9846C11.802 61.4324 13.7897 63.3465 16.2438 63.3512C23.5073 63.3637 30.7693 63.3621 38.0329 63.3512C40.1505 63.348 42.0536 61.9238 42.4183 59.8376C42.6765 58.3617 42.5826 56.8232 42.6484 55.2785C32.264 55.28 22.0064 55.28 11.6972 55.28ZM54.9218 44.29C54.4069 43.6686 53.9013 43.0489 53.3833 42.44C53.0484 42.0456 53.0624 41.6763 53.2816 41.2083C53.8293 40.0314 54.3568 38.8388 54.8028 37.6211C55.0094 37.0577 55.2974 36.7916 55.8827 36.7556C56.6355 36.7071 57.3852 36.6085 58.149 36.5318C58.149 35.4801 58.149 34.4956 58.149 33.4627C57.3649 33.3844 56.6121 33.2811 55.8561 33.2436C55.2317 33.2123 54.9515 32.9055 54.7434 32.3327C54.3192 31.1683 53.845 30.0164 53.3066 28.9005C53.0421 28.3527 52.9905 27.9426 53.4115 27.4731C53.9295 26.8956 54.4022 26.2789 54.8889 25.6858C54.1455 24.9674 53.4365 24.2803 52.7025 23.5698C52.1297 24.044 51.4958 24.562 50.8698 25.0895C50.4941 25.4056 50.117 25.4494 49.6944 25.1756C48.555 24.4384 47.3217 23.9188 45.9976 23.6167C45.525 23.5087 45.2761 23.2223 45.2386 22.7152C45.1775 21.903 45.0727 21.0938 44.9803 20.2252C44.1054 20.2252 43.2493 20.2471 42.3964 20.2158C41.9722 20.2001 41.8627 20.3723 41.8455 20.7542C41.8142 21.3959 41.739 22.0375 41.6827 22.6777C41.6357 23.2098 41.3446 23.4618 40.8344 23.648C39.6512 24.08 38.479 24.5558 37.349 25.1114C36.7934 25.3837 36.3896 25.4166 35.9247 25.005C35.3441 24.49 34.7321 24.0096 34.2344 23.5964C33.4816 24.3414 32.7695 25.0456 32.0371 25.7703C32.4909 26.3181 32.9808 26.9253 33.4895 27.5154C33.8619 27.9473 33.826 28.3402 33.5849 28.8488C33.045 29.9866 32.5567 31.1526 32.12 32.3343C31.9103 32.904 31.6301 33.2123 31.0057 33.2451C30.2356 33.2858 29.4703 33.3954 28.7253 33.4736C28.7253 34.5442 28.7253 35.5302 28.7253 36.5365C29.5079 36.6148 30.2435 36.6993 30.9822 36.7619C31.7209 36.8245 31.8712 37.0154 32.1231 37.701C32.5441 38.8466 33.009 39.9813 33.5458 41.0768C33.826 41.6465 33.8666 42.0707 33.43 42.5559C32.9135 43.1287 32.4455 43.7438 32.0324 44.2493C32.7852 45.0146 33.4785 45.7173 34.1906 46.442C34.7071 46.0147 35.2643 45.5561 35.8183 45.096C36.5242 44.5075 36.6181 44.5498 37.4225 44.9442C38.4492 45.4481 39.5057 45.9036 40.5824 46.287C41.5215 46.6219 41.6498 46.7065 41.7234 47.7066C41.7735 48.3827 41.847 49.0572 41.9112 49.738C42.9755 49.738 43.9787 49.738 44.985 49.738C45.0742 48.9039 45.1791 48.1119 45.2354 47.3153C45.273 46.7847 45.55 46.55 46.0242 46.3684C47.2356 45.9036 48.4423 45.4153 49.6146 44.8581C50.1295 44.6139 50.5098 44.5936 50.9402 44.9692C51.5412 45.4935 52.1688 45.9881 52.751 46.4686C53.4788 45.7314 54.1815 45.0303 54.9218 44.29Z" fill="#F1F1F1"/>
<path d="M17.9765 47.639C17.0015 47.639 16.0264 47.6437 15.0514 47.6374C14.394 47.6327 14.0122 47.304 14.0278 46.7782C14.0419 46.2773 14.394 45.9941 15.0514 45.9925C17.0015 45.9862 18.9516 45.9862 20.9032 45.9925C21.5966 45.9956 21.9409 46.293 21.9221 46.8361C21.9049 47.3369 21.5387 47.6327 20.9048 47.6374C19.9266 47.6437 18.9516 47.639 17.9765 47.639Z" fill="#F1F1F1"/>
<path d="M21.8964 39.2112C22.7337 39.2112 23.5711 39.2034 24.4084 39.2143C24.9389 39.2206 25.2989 39.5524 25.3052 40.0063C25.3114 40.457 24.9499 40.8358 24.435 40.8389C22.7212 40.853 21.0074 40.8545 19.2937 40.8373C18.7835 40.8326 18.4063 40.4273 18.4626 39.9765C18.5236 39.4914 18.8038 39.2081 19.3234 39.2096C20.1826 39.2143 21.0387 39.2112 21.8964 39.2112Z" fill="#F1F1F1"/>
<path d="M23.2137 25.0661C24.0339 25.0661 24.8524 25.0567 25.6725 25.0693C26.2907 25.0786 26.6569 25.4104 26.6491 25.9175C26.6413 26.4027 26.2985 26.7157 25.6991 26.7204C24.0792 26.7329 22.4609 26.7329 20.8411 26.722C20.2244 26.7173 19.8378 26.3698 19.8519 25.8847C19.8645 25.3948 20.2495 25.0771 20.8739 25.0693C21.6534 25.0583 22.4328 25.0661 23.2137 25.0661Z" fill="#F1F1F1"/>
<path d="M17.2883 32.422C18.0677 32.422 18.8471 32.4174 19.625 32.4236C20.215 32.4283 20.5624 32.7304 20.5687 33.2218C20.575 33.7148 20.2228 34.0466 19.6469 34.0497C18.0896 34.0591 16.5308 34.0576 14.9735 34.0497C14.3882 34.0466 14.0376 33.7336 14.0313 33.2437C14.0251 32.7492 14.3725 32.4299 14.9516 32.4236C15.731 32.4158 16.5104 32.422 17.2883 32.422Z" fill="#F1F1F1"/>
<path d="M26.6858 45.9927C27.2899 45.9927 27.8941 45.9786 28.4982 45.9974C29.0287 46.0131 29.384 46.359 29.3793 46.8113C29.3762 47.2698 29.0225 47.6267 28.4919 47.6329C27.2649 47.6502 26.0363 47.6502 24.8077 47.6314C24.285 47.6236 23.9297 47.2589 23.9297 46.8034C23.9297 46.3402 24.2709 46.0115 24.814 45.9959C25.4369 45.9786 26.0613 45.9927 26.6858 45.9927Z" fill="#F1F1F1"/>
<path d="M15.9067 26.7125C15.5373 26.7125 15.1664 26.7328 14.7986 26.7078C14.3197 26.6749 14.0458 26.3854 14.0317 25.9143C14.0192 25.4683 14.2821 25.1302 14.7141 25.1036C15.5279 25.0519 16.3496 25.0472 17.1619 25.1067C17.6157 25.1396 17.874 25.4886 17.8333 25.9753C17.7957 26.4339 17.5171 26.6796 17.0726 26.7078C16.6861 26.7328 16.2948 26.7125 15.9067 26.7125Z" fill="#F1F1F1"/>
<path d="M37.1729 14.8069C36.9099 14.7897 36.5953 14.796 36.2917 14.7412C35.8738 14.6676 35.6516 14.3781 35.6485 13.9602C35.6453 13.5408 35.8738 13.2152 36.2839 13.1777C36.899 13.1213 37.525 13.1213 38.1401 13.1745C38.5501 13.2105 38.7865 13.5329 38.7849 13.9524C38.7833 14.3969 38.5361 14.6848 38.0916 14.7537C37.8067 14.7975 37.5125 14.7897 37.1729 14.8069Z" fill="#F1F1F1"/>
<path d="M23.9422 32.4235C24.1363 32.4235 24.3319 32.4125 24.5244 32.4266C25.0081 32.4626 25.2804 32.7569 25.296 33.2139C25.3101 33.6787 25.0284 33.9886 24.562 34.0387C24.1582 34.0825 23.7466 34.0684 23.3397 34.0465C22.8686 34.0214 22.5227 33.6521 22.5274 33.2232C22.5321 32.7928 22.8827 32.4501 23.3585 32.4235C23.5541 32.4141 23.7482 32.4219 23.9422 32.4235Z" fill="#F1F1F1"/>
<path d="M15.2872 39.2128C15.4233 39.2128 15.5595 39.2096 15.6957 39.2128C16.1871 39.2269 16.4406 39.518 16.5048 39.9687C16.5643 40.3882 16.2027 40.7873 15.7395 40.8342C15.4703 40.8624 15.1964 40.853 14.9241 40.842C14.3638 40.8186 14.0132 40.4742 14.032 39.9828C14.0492 39.5133 14.3841 39.2284 14.9382 39.2096C15.054 39.2065 15.1714 39.2096 15.2872 39.2096C15.2872 39.2112 15.2872 39.2128 15.2872 39.2128Z" fill="#F1F1F1"/>
<path d="M34.0704 34.6962C34.0986 29.2512 38.4715 24.9738 43.9821 25.0036C49.2267 25.0317 53.5667 29.4547 53.5511 34.7556C53.5354 40.1787 49.1344 44.478 43.6284 44.4482C38.3729 44.4201 34.0438 40.0018 34.0704 34.6962ZM35.7326 34.7275C35.7341 39.1942 39.337 42.8096 43.7912 42.8127C48.2423 42.8158 51.8639 39.213 51.8937 34.7509C51.9234 30.2983 48.2611 26.6313 43.7849 26.636C39.337 26.6407 35.7326 30.2623 35.7326 34.7275Z" fill="#F1F1F1"/>
<path d="M42.6331 35.9781C44.0338 34.6149 45.3188 33.3628 46.6037 32.1139C46.743 31.9777 46.8776 31.8306 47.0388 31.7242C47.3957 31.4894 47.7478 31.5301 48.0483 31.829C48.3488 32.128 48.3864 32.4801 48.1625 32.8385C48.0702 32.9841 47.9419 33.1093 47.8167 33.2314C46.3956 34.6227 44.9729 36.0125 43.5471 37.4007C42.8976 38.033 42.5642 38.0315 41.921 37.4054C41.1666 36.6699 40.4122 35.9358 39.6657 35.194C39.2071 34.7385 39.157 34.2862 39.5029 33.9169C39.8582 33.5397 40.3684 33.5663 40.8301 34.0374C41.4421 34.665 42.0243 35.3207 42.6331 35.9781Z" fill="#F1F1F1"/>
<defs>
<linearGradient id="paint0_linear_7846_16169" x1="43.6572" y1="18.9858" x2="43.6572" y2="50.7936" gradientUnits="userSpaceOnUse">
<stop stop-color="#F57F3D"/>
<stop offset="1" stop-color="#D7392F"/>
</linearGradient>
</defs>
</svg>
