<svg width="70" height="70" viewBox="0 0 70 70" fill="none" xmlns="http://www.w3.org/2000/svg">
<path d="M56.6661 9.24992H14.5822L11.2488 8.83325L8.74874 10.0833L6.66538 11.3333L5.83203 16.3334L6.66538 23.0001L61.2495 23.4168L63.7495 23.0001L64.1662 21.7501L64.5829 18.0001L64.1662 13.4167L62.9162 11.75L60.8328 10.0833L56.6661 9.24992Z" fill="url(#paint0_linear_7846_16155)"/>
<path d="M65 13.776C65 27.7023 65 41.6273 65 55.5536C64.966 55.6221 64.9163 55.6892 64.9007 55.7621C64.2116 59.1562 61.6098 61.3295 58.1969 61.3309C42.7303 61.3352 27.2637 61.3352 11.7985 61.3309C7.89502 61.3295 5.00248 58.4037 5.00106 54.4698C4.99965 41.2746 4.99965 28.0793 5.00106 14.8826C5.00248 10.9259 7.90211 8.01297 11.8482 8.00297C14.114 7.99726 16.3784 8.00154 18.6442 8.00154C31.8067 8.00154 44.9677 8.00154 58.1302 8.00154C60.5237 8.00154 62.486 8.92825 63.809 10.9387C64.3605 11.7798 64.6115 12.825 65 13.776ZM6.98614 24.0412C6.98614 24.2454 6.98614 24.3982 6.98614 24.5524C6.98614 34.5034 6.9833 44.4531 6.99465 54.4041C6.99465 54.8896 7.05704 55.3894 7.18748 55.8563C7.80853 58.0696 9.57525 59.3333 12.0211 59.3333C27.3303 59.3361 42.6409 59.3361 57.9501 59.3261C58.4719 59.3261 59.0107 59.279 59.5113 59.1419C61.709 58.5422 63.0093 56.7573 63.0107 54.3727C63.0149 44.4417 63.0121 34.5106 63.0107 24.5795C63.0107 24.4082 62.9908 24.2368 62.9795 24.0412C44.3198 24.0412 25.6955 24.0412 6.98614 24.0412ZM62.9766 21.9593C62.9922 21.8137 63.0107 21.7194 63.0107 21.6252C63.0121 19.3248 63.0206 17.023 63.0022 14.7227C62.9993 14.3157 62.9313 13.8974 62.8207 13.5047C62.1954 11.2743 60.4244 10.0106 57.9374 10.0106C42.6466 10.0092 27.3544 10.0077 12.0637 10.0177C11.5419 10.0177 11.0031 10.0634 10.5026 10.2005C8.31331 10.796 7.00174 12.5623 6.98898 14.8969C6.97621 17.0802 6.98472 19.2634 6.98756 21.4467C6.98756 21.6138 7.01166 21.7808 7.02584 21.9593C25.6941 21.9593 44.3027 21.9593 62.9766 21.9593Z" fill="#F1F1F1"/>
<path d="M37.688 31.1051C37.4157 32.4145 37.1179 33.8524 36.8174 35.2917C35.8191 40.0681 34.8195 44.843 33.8199 49.6193C33.7873 49.7721 33.7547 49.9263 33.7121 50.0777C33.542 50.6745 33.0514 51.0287 32.5551 50.9173C31.978 50.7873 31.6406 50.2405 31.7696 49.6079C32.022 48.3799 32.2871 47.1533 32.5452 45.9268C33.5987 40.902 34.6494 35.8772 35.7057 30.8524C35.8503 30.1656 36.1921 29.8371 36.7238 29.8357C37.3306 29.8329 37.7177 30.2855 37.688 31.1051Z" fill="#F1F1F1"/>
<path d="M23.8187 40.3108C25.2012 41.4959 26.5496 42.654 27.8981 43.8106C28.3433 44.1932 28.7999 44.5645 29.2323 44.9629C29.7243 45.4155 29.7924 45.9953 29.4379 46.4265C29.0523 46.8963 28.4709 46.9348 27.9349 46.4793C25.8605 44.7159 23.7918 42.9481 21.7344 41.1661C21.1006 40.6178 21.0992 40.0009 21.7287 39.454C23.7833 37.6692 25.8506 35.8971 27.9236 34.1337C28.4496 33.6853 29.065 33.7267 29.4337 34.1751C29.8023 34.6234 29.7229 35.226 29.1955 35.6815C27.5805 37.078 25.9555 38.4616 24.3363 39.851C24.1761 39.9881 24.0201 40.1309 23.8187 40.3108Z" fill="#F1F1F1"/>
<path d="M46.1916 40.3052C44.4177 38.7831 42.7092 37.3166 41.002 35.8502C40.8985 35.7602 40.7865 35.6788 40.6915 35.5803C40.2718 35.1462 40.2335 34.5579 40.5922 34.1481C40.9325 33.7611 41.5039 33.6969 41.9633 34.0524C42.5192 34.4837 43.0438 34.9563 43.5798 35.4161C45.0955 36.7155 46.6141 38.0134 48.1242 39.3214C48.9522 40.0382 48.9423 40.5951 48.11 41.309C46.1334 43.004 44.1611 44.706 42.1675 46.3809C41.918 46.5909 41.5295 46.8036 41.2445 46.7593C40.9396 46.7108 40.544 46.4109 40.4405 46.1268C40.3384 45.8455 40.449 45.3614 40.6489 45.1215C41.0459 44.646 41.5649 44.2719 42.0399 43.8636C43.4039 42.6912 44.7708 41.5232 46.1916 40.3052Z" fill="#F1F1F1"/>
<path d="M15.4236 16.0281C15.4236 17.7544 14.0156 19.1852 12.3056 19.1952C10.5857 19.2052 9.11245 17.7145 9.14506 15.9995C9.17767 14.2703 10.6126 12.8439 12.3056 12.8553C14.0113 12.8681 15.425 14.306 15.4236 16.0281ZM12.307 14.8972C11.6803 14.8901 11.1925 15.3684 11.1812 15.9995C11.1684 16.6521 11.6789 17.1876 12.307 17.1776C12.8883 17.169 13.4314 16.6164 13.4328 16.0295C13.4328 15.4298 12.911 14.9043 12.307 14.8972Z" fill="#F1F1F1"/>
<path d="M25.0485 16.0389C25.0584 17.7881 23.6844 19.1974 21.9588 19.206C20.1907 19.216 18.7912 17.8181 18.7969 16.0503C18.8026 14.3097 20.1964 12.9032 21.9177 12.8989C23.6348 12.8932 25.0371 14.2997 25.0485 16.0389ZM20.8075 16.0032C20.7806 16.6572 21.2726 17.1926 21.9106 17.2012C22.5033 17.2098 23.0364 16.69 23.052 16.0889C23.0676 15.4706 22.5827 14.9566 21.9659 14.938C21.3307 14.918 20.833 15.3764 20.8075 16.0032Z" fill="#F1F1F1"/>
<path d="M31.59 12.9432C33.3128 12.9561 34.7066 14.3797 34.6896 16.1089C34.6725 17.8509 33.2745 19.246 31.5517 19.2417C29.7963 19.2374 28.4181 17.8209 28.4337 16.0403C28.4493 14.2997 29.8445 12.9304 31.59 12.9432ZM32.6747 16.0917C32.6761 15.4706 32.1855 14.9623 31.573 14.9508C30.9576 14.9408 30.4103 15.4963 30.4259 16.1146C30.4415 16.7343 30.9463 17.2183 31.5673 17.2141C32.1926 17.2098 32.6733 16.7214 32.6747 16.0917Z" fill="#F1F1F1"/>
<defs>
<linearGradient id="paint0_linear_7846_16155" x1="35.2075" y1="8.83325" x2="35.2075" y2="23.4168" gradientUnits="userSpaceOnUse">
<stop stop-color="#F57F3D"/>
<stop offset="1" stop-color="#D7392F"/>
</linearGradient>
</defs>
</svg>
