<svg width="108" height="21" viewBox="0 0 108 21" fill="none" xmlns="http://www.w3.org/2000/svg">
<path d="M9.85191 2.82671C10.1569 1.91737 11.4431 1.91737 11.7481 2.82671L12.996 6.54733C13.1327 6.95476 13.5144 7.22933 13.9441 7.22933L17.9132 7.22933C18.8896 7.22933 19.2872 8.48511 18.4887 9.04709L15.3329 11.2683C14.9712 11.5228 14.8197 11.9847 14.9604 12.404L16.1786 16.0361C16.4857 16.9519 15.4448 17.7278 14.6549 17.1719L11.3756 14.8638C11.0303 14.6208 10.5697 14.6208 10.2244 14.8638L6.94506 17.1719C6.1552 17.7278 5.11426 16.9519 5.42141 16.0361L6.63963 12.404C6.78027 11.9847 6.62877 11.5228 6.2671 11.2683L3.11125 9.04709C2.3128 8.48511 2.71042 7.22933 3.68682 7.22933L7.6559 7.22933C8.08565 7.22933 8.46734 6.95476 8.604 6.54733L9.85191 2.82671Z" fill="url(#paint0_linear_5264_25223)"/>
<path d="M31.4535 2.82671C31.7585 1.91737 33.0447 1.91737 33.3497 2.82671L34.5976 6.54733C34.7342 6.95476 35.1159 7.22933 35.5457 7.22933L39.5147 7.22933C40.4911 7.22933 40.8888 8.48511 40.0903 9.04709L36.9345 11.2683C36.5728 11.5228 36.4213 11.9847 36.5619 12.404L37.7802 16.0361C38.0873 16.9519 37.0464 17.7278 36.2565 17.1719L32.9771 14.8638C32.6319 14.6208 32.1712 14.6208 31.826 14.8638L28.5466 17.1719C27.7568 17.7278 26.7158 16.9519 27.023 16.0361L28.2412 12.404C28.3818 11.9847 28.2303 11.5228 27.8687 11.2683L24.7128 9.04709C23.9144 8.48511 24.312 7.22933 25.2884 7.22933L29.2575 7.22933C29.6872 7.22933 30.0689 6.95476 30.2056 6.54733L31.4535 2.82671Z" fill="url(#paint1_linear_5264_25223)"/>
<path d="M53.0511 2.82671C53.3561 1.91737 54.6423 1.91737 54.9473 2.82671L56.1952 6.54733C56.3319 6.95476 56.7136 7.22933 57.1433 7.22933L61.1124 7.22933C62.0888 7.22933 62.4864 8.48511 61.688 9.04709L58.5321 11.2683C58.1704 11.5228 58.0189 11.9847 58.1596 12.404L59.3778 16.0361C59.685 16.9519 58.644 17.7278 57.8542 17.1719L54.5748 14.8638C54.2295 14.6208 53.7689 14.6208 53.4237 14.8638L50.1443 17.1719C49.3544 17.7278 48.3135 16.9519 48.6206 16.0361L49.8389 12.404C49.9795 11.9847 49.828 11.5228 49.4663 11.2683L46.3105 9.04709C45.512 8.48511 45.9096 7.22933 46.886 7.22933L50.8551 7.22933C51.2849 7.22933 51.6666 6.95476 51.8032 6.54733L53.0511 2.82671Z" fill="url(#paint2_linear_5264_25223)"/>
<path d="M74.6527 2.82671C74.9577 1.91737 76.2439 1.91737 76.5489 2.82671L77.7968 6.54733C77.9334 6.95476 78.3151 7.22933 78.7449 7.22933L82.714 7.22933C83.6904 7.22933 84.088 8.48511 83.2895 9.04709L80.1337 11.2683C79.772 11.5228 79.6205 11.9847 79.7611 12.404L80.9794 16.0361C81.2865 16.9519 80.2456 17.7278 79.4557 17.1719L76.1763 14.8638C75.8311 14.6208 75.3705 14.6208 75.0252 14.8638L71.7458 17.1719C70.956 17.7278 69.915 16.9519 70.2222 16.0361L71.4404 12.404C71.5811 11.9847 71.4296 11.5228 71.0679 11.2683L67.912 9.04709C67.1136 8.48511 67.5112 7.22933 68.4876 7.22933L72.4567 7.22933C72.8864 7.22933 73.2681 6.95476 73.4048 6.54733L74.6527 2.82671Z" fill="url(#paint3_linear_5264_25223)"/>
<path d="M96.2503 2.82671C96.5553 1.91737 97.8415 1.91737 98.1465 2.82671L99.3944 6.54733C99.5311 6.95476 99.9128 7.22933 100.343 7.22933L104.312 7.22933C105.288 7.22933 105.686 8.48511 104.887 9.04709L101.731 11.2683C101.37 11.5228 101.218 11.9847 101.359 12.404L102.577 16.0361C102.884 16.9519 101.843 17.7278 101.053 17.1719L97.774 14.8638C97.4288 14.6208 96.9681 14.6208 96.6229 14.8638L93.3435 17.1719C92.5536 17.7278 91.5127 16.9519 91.8198 16.0361L93.0381 12.404C93.1787 11.9847 93.0272 11.5228 92.6655 11.2683L89.5097 9.04709C88.7112 8.48511 89.1089 7.22933 90.0853 7.22933L94.0543 7.22933C94.4841 7.22933 94.8658 6.95476 95.0024 6.54733L96.2503 2.82671Z" fill="url(#paint4_linear_5264_25223)"/>
<defs>
<linearGradient id="paint0_linear_5264_25223" x1="9.28125" y1="-1.04621" x2="20.5222" y2="10.7423" gradientUnits="userSpaceOnUse">
<stop stop-color="#F57F3D"/>
<stop offset="1" stop-color="#D7392F"/>
</linearGradient>
<linearGradient id="paint1_linear_5264_25223" x1="30.8828" y1="-1.04621" x2="42.1238" y2="10.7423" gradientUnits="userSpaceOnUse">
<stop stop-color="#F57F3D"/>
<stop offset="1" stop-color="#D7392F"/>
</linearGradient>
<linearGradient id="paint2_linear_5264_25223" x1="52.4805" y1="-1.04621" x2="63.7214" y2="10.7423" gradientUnits="userSpaceOnUse">
<stop stop-color="#F57F3D"/>
<stop offset="1" stop-color="#D7392F"/>
</linearGradient>
<linearGradient id="paint3_linear_5264_25223" x1="74.082" y1="-1.04621" x2="85.323" y2="10.7423" gradientUnits="userSpaceOnUse">
<stop stop-color="#F57F3D"/>
<stop offset="1" stop-color="#D7392F"/>
</linearGradient>
<linearGradient id="paint4_linear_5264_25223" x1="95.6797" y1="-1.04621" x2="106.921" y2="10.7423" gradientUnits="userSpaceOnUse">
<stop stop-color="#F57F3D"/>
<stop offset="1" stop-color="#D7392F"/>
</linearGradient>
</defs>
</svg>
