<svg width="57" height="55" viewBox="0 0 57 55" fill="none" xmlns="http://www.w3.org/2000/svg">
<path d="M18.9976 27.5C18.9976 22.4376 23.198 18.3326 28.3809 18.3326C33.5637 18.3326 37.7664 22.4376 37.7664 27.5C37.7664 32.5624 33.5637 36.6674 28.3809 36.6674C23.198 36.6674 18.9976 32.5624 18.9976 27.5ZM13.9239 27.5C13.9239 35.2991 20.3962 41.621 28.3809 41.621C36.3655 41.621 42.8378 35.2991 42.8378 27.5C42.8378 19.7009 36.3655 13.379 28.3809 13.379C20.3962 13.379 13.9239 19.7009 13.9239 27.5ZM40.0315 12.8193C40.0315 14.6407 41.5438 16.1202 43.4109 16.1202C45.2757 16.1202 46.7903 14.6407 46.7903 12.8193C46.7903 10.9978 45.278 9.5206 43.4109 9.5206C41.5438 9.5206 40.0315 10.9978 40.0315 12.8193ZM17.0054 49.8843C14.2605 49.7621 12.7686 49.3156 11.7771 48.938C10.4626 48.4382 9.52567 47.8429 8.53867 46.8811C7.55396 45.9192 6.9422 45.004 6.43279 43.7201C6.04618 42.7516 5.58907 41.2944 5.46399 38.6133C5.32754 35.7145 5.30025 34.8437 5.30025 27.5C5.30025 20.1563 5.32981 19.2878 5.46399 16.3867C5.58907 13.7056 6.04845 12.2506 6.43279 11.2799C6.94448 9.99596 7.55396 9.08078 8.53867 8.11672C9.52339 7.15489 10.4604 6.55735 11.7771 6.05977C12.7686 5.68215 14.2605 5.23566 17.0054 5.11349C19.9732 4.98021 20.8647 4.95355 28.3809 4.95355C35.8993 4.95355 36.7885 4.98243 39.7586 5.11349C42.5035 5.23566 43.9931 5.68437 44.9869 6.05977C46.3014 6.55735 47.2383 7.15489 48.2253 8.11672C49.21 9.07855 49.8195 9.99596 50.3312 11.2799C50.7178 12.2484 51.1749 13.7056 51.3 16.3867C51.4365 19.2878 51.4637 20.1563 51.4637 27.5C51.4637 34.8415 51.4365 35.7122 51.3 38.6133C51.1749 41.2944 50.7155 42.7516 50.3312 43.7201C49.8195 45.004 49.21 45.9192 48.2253 46.8811C47.2406 47.8429 46.3014 48.4382 44.9869 48.938C43.9953 49.3156 42.5035 49.7621 39.7586 49.8843C36.7908 50.0176 35.8993 50.0442 28.3809 50.0442C20.8647 50.0442 19.9732 50.0176 17.0054 49.8843ZM16.7735 0.166599C13.7761 0.299879 11.7293 0.764136 9.93957 1.44386C8.08839 2.1458 6.51921 3.08764 4.9523 4.61591C3.38767 6.14418 2.42342 7.6769 1.70478 9.48728C1.00888 11.2355 0.533576 13.2347 0.397126 16.1624C0.258401 19.0945 0.226562 20.0319 0.226562 27.5C0.226562 34.9681 0.258401 35.9055 0.397126 38.8376C0.533576 41.7653 1.00888 43.7645 1.70478 45.5127C2.42342 47.3209 3.38539 48.8558 4.9523 50.3841C6.51693 51.9124 8.08611 52.852 9.93957 53.5561C11.7316 54.2359 13.7761 54.7001 16.7735 54.8334C19.7777 54.9667 20.7351 55 28.3809 55C36.0289 55 36.9863 54.9689 39.9883 54.8334C42.9856 54.7001 45.0324 54.2359 46.8221 53.5561C48.6733 52.852 50.2425 51.9124 51.8094 50.3841C53.374 48.8558 54.336 47.3209 55.0569 45.5127C55.7528 43.7645 56.2304 41.7653 56.3646 38.8376C56.501 35.9033 56.5329 34.9681 56.5329 27.5C56.5329 20.0319 56.501 19.0945 56.3646 16.1624C56.2281 13.2347 55.7528 11.2355 55.0569 9.48728C54.336 7.67912 53.374 6.14641 51.8094 4.61591C50.2448 3.08764 48.6733 2.1458 46.8244 1.44386C45.0324 0.764136 42.9856 0.297658 39.9905 0.166599C36.9886 0.0333199 36.0289 0 28.3831 0C20.7351 0 19.7777 0.0310985 16.7735 0.166599Z" fill="url(#paint0_linear_5516_15927)"/>
<defs>
<linearGradient id="paint0_linear_5516_15927" x1="24.4207" y1="-2.74994" x2="53.9778" y2="27.9912" gradientUnits="userSpaceOnUse">
<stop stop-color="#F57F3D"/>
<stop offset="1" stop-color="#D7392F"/>
</linearGradient>
</defs>
</svg>
