<svg width="20" height="19" viewBox="0 0 20 19" fill="none" xmlns="http://www.w3.org/2000/svg">
<path d="M17.4302 12.936L14.8528 12.6417C14.5498 12.6062 14.2426 12.6397 13.9544 12.7399C13.6661 12.8401 13.4044 13.0043 13.1887 13.2201L11.3217 15.0872C8.44112 13.6222 6.09979 11.2808 4.63478 8.40027L6.51198 6.52307C6.9483 6.08674 7.16139 5.47792 7.09036 4.85895L6.7961 2.30189C6.73857 1.80689 6.50101 1.35034 6.12866 1.01915C5.75631 0.687958 5.27517 0.505269 4.77684 0.505861H3.02141C1.8748 0.505861 0.92098 1.45968 0.992009 2.6063C1.5298 11.2719 8.46021 18.1922 17.1156 18.73C18.2622 18.801 19.216 17.8472 19.216 16.7006V14.9451C19.2262 13.9203 18.455 13.0578 17.4302 12.936Z" fill="#F1F1F1"/>
</svg>
