<svg width="55" height="55" viewBox="0 0 55 55" fill="none" xmlns="http://www.w3.org/2000/svg">
<path d="M18.3356 27.1593C18.3356 22.2143 22.4385 18.2046 27.5011 18.2046C32.5637 18.2046 36.6689 22.2143 36.6689 27.1593C36.6689 32.1043 32.5637 36.114 27.5011 36.114C22.4385 36.114 18.3356 32.1043 18.3356 27.1593ZM13.3796 27.1593C13.3796 34.7774 19.7017 40.9527 27.5011 40.9527C35.3005 40.9527 41.6226 34.7774 41.6226 27.1593C41.6226 19.5412 35.3005 13.3659 27.5011 13.3659C19.7017 13.3659 13.3796 19.5412 13.3796 27.1593ZM38.8814 12.8192C38.8814 14.5984 40.3587 16.0435 42.1824 16.0435C44.004 16.0435 45.4835 14.5984 45.4835 12.8192C45.4835 11.0399 44.0062 9.59702 42.1824 9.59702C40.3587 9.59702 38.8814 11.0399 38.8814 12.8192ZM16.3896 49.0243C13.7083 48.9049 12.2511 48.4688 11.2826 48.0999C9.99859 47.6117 9.08336 47.0302 8.11927 46.0907C7.1574 45.1512 6.55984 44.2572 6.06224 43.0031C5.6846 42.0571 5.2381 40.6337 5.11592 38.0148C4.98263 35.1832 4.95598 34.3326 4.95598 27.1593C4.95598 19.986 4.98485 19.1376 5.11592 16.3038C5.2381 13.6849 5.68682 12.2637 6.06224 11.3155C6.56206 10.0614 7.1574 9.1674 8.11927 8.22571C9.08114 7.28619 9.99637 6.70252 11.2826 6.21649C12.2511 5.84762 13.7083 5.4115 16.3896 5.29216C19.2885 5.16197 20.1593 5.13593 27.5011 5.13593C34.8451 5.13593 35.7137 5.16414 38.6148 5.29216C41.2961 5.4115 42.7511 5.84979 43.7219 6.21649C45.0059 6.70252 45.9211 7.28619 46.8852 8.22571C47.847 9.16523 48.4424 10.0614 48.9422 11.3155C49.3198 12.2615 49.7663 13.6849 49.8885 16.3038C50.0218 19.1376 50.0485 19.986 50.0485 27.1593C50.0485 34.3305 50.0218 35.181 49.8885 38.0148C49.7663 40.6337 49.3176 42.0571 48.9422 43.0031C48.4424 44.2572 47.847 45.1512 46.8852 46.0907C45.9233 47.0302 45.0059 47.6117 43.7219 48.0999C42.7533 48.4688 41.2961 48.9049 38.6148 49.0243C35.7159 49.1545 34.8451 49.1805 27.5011 49.1805C20.1593 49.1805 19.2885 49.1545 16.3896 49.0243ZM16.163 0.460036C13.2352 0.590224 11.2359 1.04371 9.48766 1.70767C7.67943 2.39332 6.14665 3.31331 4.6161 4.80613C3.08777 6.29894 2.14589 7.7961 1.44392 9.56447C0.764167 11.2721 0.299891 13.2249 0.166606 16.0847C0.0310998 18.9488 0 19.8645 0 27.1593C0 34.4541 0.0310998 35.3698 0.166606 38.2339C0.299891 41.0937 0.764167 43.0465 1.44392 44.7541C2.14589 46.5203 3.08554 48.0197 4.6161 49.5125C6.14443 51.0053 7.67721 51.9231 9.48766 52.6109C11.2381 53.2749 13.2352 53.7284 16.163 53.8586C19.0975 53.9887 20.0327 54.0213 27.5011 54.0213C34.9717 54.0213 35.9069 53.9909 38.8392 53.8586C41.767 53.7284 43.7663 53.2749 45.5146 52.6109C47.3228 51.9231 48.8556 51.0053 50.3861 49.5125C51.9145 48.0197 52.8541 46.5203 53.5583 44.7541C54.2381 43.0465 54.7046 41.0937 54.8356 38.2339C54.9689 35.3676 55 34.4541 55 27.1593C55 19.8645 54.9689 18.9488 54.8356 16.0847C54.7023 13.2249 54.2381 11.2721 53.5583 9.56447C52.8541 7.79827 51.9145 6.30111 50.3861 4.80613C48.8578 3.31331 47.3228 2.39332 45.5168 1.70767C43.7663 1.04371 41.767 0.588054 38.8414 0.460036C35.9092 0.329849 34.9717 0.297302 27.5033 0.297302C20.0327 0.297302 19.0975 0.327679 16.163 0.460036Z" fill="#979595"/>
</svg>
