<svg width="55" height="52" viewBox="0 0 55 52" fill="none" xmlns="http://www.w3.org/2000/svg">
<path d="M2.19326 2.04937L2.19325 2.04938C1.06316 3.07011 0.5 4.35371 0.5 5.9387C0.5 7.52867 1.04939 8.82387 2.14827 9.86132C3.24272 10.8946 4.68694 11.429 6.52992 11.429H6.58301C8.50172 11.429 10.0005 10.8916 11.1292 9.8564L11.1295 9.8561C12.228 8.85049 12.7722 7.60792 12.7722 6.09362C12.7722 4.39581 12.2022 3.05396 11.0765 2.02129L2.19326 2.04937ZM2.19326 2.04937C3.32337 1.02857 4.80651 0.5 6.68919 0.5M2.19326 2.04937L6.68919 0.5M6.68919 0.5C8.53632 0.5 9.98249 1.01977 11.0764 2.02124L6.68919 0.5ZM31.1606 21.8982C31.1951 21.863 31.2259 21.8211 31.2517 21.7723L31.3149 21.6526C33.7626 18.0757 37.1289 16.3021 41.4624 16.3021C45.4137 16.3021 48.5489 17.5751 50.9196 20.0952C53.2796 22.604 54.5 26.3258 54.5 31.346V50.6244H43.7143V32.6887C43.7143 30.04 43.2118 27.962 42.1254 26.5371C41.0194 25.0867 39.3692 24.3909 37.2683 24.3909C35.6537 24.3909 34.2722 24.8221 33.1597 25.7144C32.0881 26.5739 31.2849 27.6297 30.7566 28.877C30.4343 29.6225 30.2915 30.6309 30.2915 31.8624V50.6244H19.5092C19.5777 40.4694 19.612 32.5628 19.612 26.9049C19.612 21.8846 19.5851 18.6191 19.5302 17.1284H30.2915V21.3828V21.5342V23.4461L31.1606 21.8982ZM1.19015 50.6244V17.1284H11.9759V50.6244H1.19015Z" fill="#979595" stroke="#1B1B1B"/>
</svg>
