<svg width="14" height="21" viewBox="0 0 14 21" fill="none" xmlns="http://www.w3.org/2000/svg">
<path d="M7 9.65039C6.33696 9.65039 5.70107 9.387 5.23223 8.91816C4.76339 8.44932 4.5 7.81343 4.5 7.15039C4.5 6.48735 4.76339 5.85146 5.23223 5.38262C5.70107 4.91378 6.33696 4.65039 7 4.65039C7.66304 4.65039 8.29893 4.91378 8.76777 5.38262C9.23661 5.85146 9.5 6.48735 9.5 7.15039C9.5 7.4787 9.43534 7.80379 9.3097 8.1071C9.18406 8.41041 8.99991 8.68601 8.76777 8.91816C8.53562 9.1503 8.26002 9.33445 7.95671 9.46009C7.65339 9.58573 7.3283 9.65039 7 9.65039ZM7 0.150391C5.14348 0.150391 3.36301 0.887888 2.05025 2.20064C0.737498 3.5134 0 5.29388 0 7.15039C0 12.4004 7 20.1504 7 20.1504C7 20.1504 14 12.4004 14 7.15039C14 5.29388 13.2625 3.5134 11.9497 2.20064C10.637 0.887888 8.85652 0.150391 7 0.150391Z" fill="white"/>
</svg>
