<svg width="16" height="17" viewBox="0 0 16 17" fill="none" xmlns="http://www.w3.org/2000/svg">
<path d="M3.21778 7.07484C4.49778 9.59039 6.56 11.6437 9.07556 12.9326L11.0311 10.9771C11.2711 10.7371 11.6267 10.6571 11.9378 10.7637C12.9333 11.0926 14.0089 11.2704 15.1111 11.2704C15.6 11.2704 16 11.6704 16 12.1593V15.2615C16 15.7504 15.6 16.1504 15.1111 16.1504C6.76444 16.1504 0 9.38595 0 1.03928C0 0.550391 0.4 0.150391 0.888889 0.150391H4C4.48889 0.150391 4.88889 0.550391 4.88889 1.03928C4.88889 2.15039 5.06667 3.21706 5.39556 4.21261C5.49333 4.52372 5.42222 4.87039 5.17333 5.11928L3.21778 7.07484Z" fill="white"/>
</svg>
