<svg width="20" height="21" viewBox="0 0 20 21" fill="none" xmlns="http://www.w3.org/2000/svg">
<path fill-rule="evenodd" clip-rule="evenodd" d="M10.1351 0.746582C4.68205 0.746582 0.261719 5.16691 0.261719 10.62C0.261719 12.4861 0.780073 14.2337 1.68152 15.7226L0.800807 18.7162C0.75024 18.8881 0.746913 19.0704 0.791175 19.244C0.835437 19.4176 0.925654 19.5761 1.05234 19.7028C1.17903 19.8295 1.33751 19.9197 1.51112 19.964C1.68473 20.0082 1.86705 20.0049 2.03893 19.9543L5.03255 19.0736C6.5715 20.0048 8.33642 20.4958 10.1351 20.4934C15.5882 20.4934 20.0086 16.0731 20.0086 10.62C20.0086 5.16691 15.5882 0.746582 10.1351 0.746582ZM7.90177 12.8543C9.89916 14.8508 11.8057 15.1144 12.4791 15.1391C13.503 15.1766 14.5002 14.3946 14.8882 13.4872C14.9372 13.3744 14.955 13.2504 14.9397 13.1283C14.9244 13.0062 14.8766 12.8905 14.8013 12.7931C14.2602 12.102 13.5286 11.6054 12.8138 11.1117C12.6645 11.0085 12.4811 10.9671 12.302 10.9962C12.1229 11.0253 11.962 11.1226 11.8531 11.2677L11.2607 12.1711C11.2296 12.2197 11.181 12.2545 11.125 12.2685C11.0691 12.2824 11.0099 12.2744 10.9596 12.2461C10.5577 12.0161 9.97223 11.6251 9.55162 11.2045C9.13101 10.7839 8.76372 10.2251 8.55736 9.84888C8.53178 9.80109 8.52438 9.74564 8.53655 9.69281C8.54871 9.63999 8.57961 9.59336 8.62352 9.56157L9.53582 8.88425C9.66602 8.77104 9.75004 8.61391 9.77188 8.44277C9.79373 8.27163 9.75188 8.09843 9.6543 7.95615C9.21197 7.30845 8.69658 6.48501 7.94916 5.93901C7.8527 5.86911 7.73971 5.82552 7.6213 5.81254C7.50288 5.79956 7.38313 5.81762 7.27382 5.86496C6.36547 6.25397 5.57954 7.25119 5.61706 8.27703C5.64174 8.9504 5.90536 10.857 7.90177 12.8543Z" fill="#F1F1F1"/>
</svg>
